<?xml version="1.0" standalone="no"?>
<!DOCTYPE svg PUBLIC "-//W3C//DTD SVG 20010904//EN"
 "http://www.w3.org/TR/2001/REC-SVG-20010904/DTD/svg10.dtd">
<svg version="1.0" xmlns="http://www.w3.org/2000/svg"
 width="851.000000pt" height="722.000000pt" viewBox="0 0 851.000000 722.000000"
 preserveAspectRatio="xMidYMid meet">

<g transform="translate(0.000000,722.000000) scale(0.100000,-0.100000)"
fill="#000000" stroke="none">
<path d="M1600 6269 l0 -655 1315 -1315 c723 -723 1321 -1315 1328 -1317 6 -1
383 369 837 823 454 454 828 825 832 825 5 0 8 -688 8 -1530 l0 -1530 90 0 90
0 2 1578 3 1577 50 0 50 0 3 -1577 2 -1578 175 0 175 0 0 1580 0 1580 50 0
c33 0 50 -4 50 -12 0 -7 0 -700 0 -1540 0 -840 3 -1546 6 -1568 l7 -41 86 3
86 3 3 2634 c1 1792 -1 2638 -8 2645 -7 7 -418 -397 -1298 -1277 -708 -708
-1292 -1287 -1297 -1287 -5 0 -603 593 -1327 1317 l-1318 1318 0 -656z"/>
<path d="M1600 2660 l0 -2500 2625 0 2626 0 -3 88 -3 87 -1577 3 -1578 2 0 45
c0 25 -1 48 -2 53 -2 4 708 9 1577 12 l1580 5 0 170 0 170 -1580 3 -1580 2 3
50 c3 38 8 50 20 50 10 0 719 1 1577 3 l1560 2 0 90 0 90 -2157 3 -2158 2 0
1578 0 1577 -459 458 c-253 251 -462 457 -465 457 -3 0 -6 -1125 -6 -2500z"/>
</g>
</svg>
